<svg version="1.1" id="Layer_1" xmlns="http://www.w3.org/2000/svg" xmlns:xlink="http://www.w3.org/1999/xlink" x="0px" y="0px"
	 viewBox="0 0 128 40" style="enable-background: new 0 0 128 40;" xml:space="preserve">
<style type="text/css">
  .st0 { fill-rule: evenodd; clip-rule: evenodd; }
  .st1 { fill: #fff; fill-rule: evenodd; clip-rule: evenodd; }
  .st2 { fill: url(#SVGID_1_); }
  .st3 { fill: url(#SVGID_2_); }
  .st4 { fill: url(#SVGID_3_); }
  .st5 { fill: url(#SVGID_4_); }
  .st6 { opacity: 0.2; enable-background: new; }
  .st7 { opacity: 0.25; fill: #fff; enable-background: new; }
</style>
<defs>
		<linearGradient id="SVGID_1_" gradientUnits="userSpaceOnUse" x1="19.692" y1="-1007.5081" x2="9.892" y2="-1017.308" gradientTransform="matrix(1 0 0 -1 0 -996)">
		<stop  offset="0" style="stop-color: #00a0ff;"/>
		<stop  offset="7.000001e-03" style="stop-color: #00a1ff;"/>
		<stop  offset="0.26" style="stop-color: #00beff;"/>
		<stop  offset="0.512" style="stop-color: #00d2ff;"/>
		<stop  offset="0.76" style="stop-color: #00dfff;"/>
		<stop  offset="1" style="stop-color: #00e3ff;"/>
	</linearGradient>
		<linearGradient id="SVGID_2_" gradientUnits="userSpaceOnUse" x1="32.573" y1="-1016.05" x2="10.25" y2="-1016.05" gradientTransform="matrix(1 0 0 -1 0 -996)">
		<stop  offset="0" style="stop-color: #ffe000;"/>
		<stop  offset="0.409" style="stop-color: #ffbd00;"/>
		<stop  offset="0.775" style="stop-color: #ffa500;"/>
		<stop  offset="1" style="stop-color: #ff9c00;"/>
	</linearGradient>
	<linearGradient id="SVGID_3_" gradientUnits="userSpaceOnUse" x1="23.5125" y1="-1018.9875" x2="6.7805" y2="-1035.7195" gradientTransform="matrix(1 0 0 -1 0 -996)">
		<stop  offset="0" style="stop-color: #ff3a44;"/>
		<stop  offset="1" style="stop-color: #c31162;"/>
	</linearGradient>
		<linearGradient id="SVGID_4_" gradientUnits="userSpaceOnUse" x1="10.596" y1="-1000.2961" x2="18.067" y2="-1007.767" gradientTransform="matrix(1 0 0 -1 0 -996)">
		<stop  offset="0" style="stop-color: #32a071;"/>
		<stop  offset="6.900000e-02" style="stop-color: #2da771;"/>
		<stop  offset="0.476" style="stop-color: #15cf74;"/>
		<stop  offset="0.801" style="stop-color: #06e775;"/>
		<stop  offset="1" style="stop-color: #00f076;"/>
	</linearGradient>
</defs>
<path class="st0" d="M5.1,0h117.7c1.8,0,2.4,0.2,3.1,0.5s1.2,0.9,1.5,1.5c0.3,0.7,0.5,1.3,0.5,3.1v29.7c0,1.8-0.2,2.4-0.5,3.1
	c-0.3,0.6-0.9,1.2-1.5,1.5c-0.7,0.3-1.3,0.5-3.1,0.5H5.1c-1.8,0-2.4-0.2-3.1-0.5c-0.6-0.3-1.2-0.9-1.5-1.5S0,36.7,0,34.9V5.1
	C0,3.3,0.2,2.7,0.5,2C0.9,1.4,1.4,0.9,2,0.5C2.7,0.2,3.3,0,5.1,0z"/>
<path class="st1" d="M64.2,21.7c2.2,0,3.9,1.6,3.9,3.9s-1.8,3.9-3.9,3.9c-2.2,0-3.9-1.7-3.9-3.9C60.3,23.3,62,21.7,64.2,21.7z
	 M64.2,28c1.2,0,2.2-1,2.2-2.4s-1-2.4-2.2-2.4c-1.2,0-2.2,1-2.2,2.4S63,28,64.2,28z M55.6,21.7c2.2,0,3.9,1.6,3.9,3.9
	s-1.8,3.9-3.9,3.9c-2.2,0-3.9-1.7-3.9-3.9C51.7,23.3,53.5,21.7,55.6,21.7z M55.6,28c1.2,0,2.2-1,2.2-2.4s-1-2.4-2.2-2.4
	s-2.2,1-2.2,2.4S54.4,28,55.6,28z M45.4,22.9H51c0.1,0.3,0.1,0.7,0.1,1c0,1.2-0.3,2.8-1.4,3.9c-1.1,1.1-2.4,1.7-4.3,1.7
	c-3.4,0-6.2-2.7-6.2-6.1s2.8-6.1,6.2-6.1c1.9,0,3.2,0.7,4.2,1.7l-1.2,1.2c-0.7-0.7-1.7-1.2-3-1.2C43,19,41,21,41,23.4
	s1.9,4.4,4.4,4.4c1.6,0,2.5-0.6,3.1-1.2c0.5-0.5,0.8-1.2,0.9-2.1h-4C45.4,24.5,45.4,22.9,45.4,22.9z M87.2,24.2l0.2,0.4l-5.2,2.2
	c0.4,0.8,1,1.2,1.9,1.2s1.5-0.4,1.9-1.1l1.3,0.9c-0.4,0.6-1.5,1.7-3.3,1.7c-2.2,0-3.9-1.7-3.9-3.9c0-2.3,1.7-3.9,3.7-3.9
	C85.9,21.7,86.9,23.3,87.2,24.2z M81.9,25.5l3.5-1.5c-0.2-0.5-0.8-0.8-1.5-0.8C83,23.2,81.8,24,81.9,25.5z M77.6,29.3V17.8h1.7v11.5
	C79.3,29.3,77.6,29.3,77.6,29.3z M74.8,22.6V22h1.6v7c0,2.9-1.7,4.1-3.7,4.1c-1.9,0-3-1.3-3.5-2.3l1.5-0.6c0.3,0.6,0.9,1.4,2,1.4
	c1.3,0,2.1-0.8,2.1-2.3v-0.6h-0.1c-0.4,0.5-1.1,0.9-2.1,0.9c-2,0-3.8-1.7-3.8-3.9s1.8-3.9,3.8-3.9C73.6,21.7,74.3,22.1,74.8,22.6z
	 M72.8,28c1.2,0,2.1-1,2.1-2.4s-0.9-2.4-2.1-2.4s-2.2,1-2.2,2.4S71.6,28,72.8,28z M95.3,17.8c1.9,0,3.8,1.4,3.8,3.6S97.2,25,95.3,25
	h-2.4v4.4h-1.7V17.8H95.3L95.3,17.8z M95.3,23.3c1.3,0,2-1.1,2-2s-0.7-2-2-2h-2.4v4H95.3z M106,21.7c2,0,3.5,1.1,3.5,3.2v4.4h-1.7
	v-0.9h-0.1c-0.4,0.6-1,1.1-2.2,1.1c-1.5,0-2.9-1-2.9-2.5c0-1.7,1.7-2.6,3.3-2.6c0.8,0,1.5,0.3,1.8,0.4v-0.1c0-0.9-0.9-1.5-1.8-1.5
	c-0.6,0-1.2,0.2-1.6,0.8l-1.5-0.6C103.4,22.2,104.7,21.7,106,21.7z M105.8,28c1,0,1.9-0.8,2-1.8c-0.5-0.2-0.8-0.4-1.6-0.4
	s-1.8,0.3-1.8,1.2C104.4,27.7,105.2,28,105.8,28z M115.5,21.9h1.9l-4.7,10.9h-1.8l1.8-3.9l-3.1-7h1.9l2,5h0.1
	C113.6,26.9,115.5,21.9,115.5,21.9z M100,29.3V17.8h1.7v11.5H100z M40.2,14.8h-0.7v-1.9H40c0.5-0.4,0.7-1.1,0.7-2.1V8.1h3.7V13H45
	v1.9h-0.7v-1.2h-4.2C40.1,13.7,40.2,14.8,40.2,14.8z M41.5,10.8c0,0.9-0.2,1.6-0.5,2.1h2.8V8.8h-2.3V10.8z M50.6,12.9
	c-0.5,0.6-1.2,0.8-2,0.8s-1.5-0.3-2-0.8c-0.5-0.6-0.8-1.2-0.8-2.1c0-0.8,0.3-1.5,0.8-2.1s1.2-0.8,2-0.8s1.5,0.3,2,0.8
	c0.5,0.6,0.8,1.2,0.8,2C51.5,11.7,51.2,12.3,50.6,12.9z M47.1,12.4c0.4,0.4,0.9,0.6,1.5,0.6c0.3,0,0.6,0,0.8-0.2
	c0.3-0.1,0.5-0.3,0.7-0.5c0.4-0.4,0.6-0.9,0.6-1.6c0-0.6-0.2-1.2-0.6-1.6c-0.2-0.2-0.4-0.4-0.7-0.5s-0.5-0.2-0.8-0.2
	c-0.6,0-1.1,0.2-1.5,0.6c-0.4,0.4-0.6,0.9-0.6,1.6S46.7,12,47.1,12.4z M55,13.7c-0.8,0-1.5-0.3-2-0.8c-0.6-0.6-0.8-1.2-0.8-2.1
	c0-0.8,0.3-1.5,0.8-2.1C53.5,8.2,54.2,8,55,8s1.5,0.3,2,0.9l-0.5,0.5c-0.4-0.5-0.9-0.7-1.5-0.7s-1.1,0.2-1.5,0.6
	c-0.4,0.4-0.6,0.9-0.6,1.6s0.2,1.2,0.6,1.6c0.4,0.4,0.9,0.6,1.5,0.6c0.7,0,1.2-0.3,1.7-0.8l0.5,0.5c-0.3,0.3-0.6,0.6-1,0.7
	C55.9,13.6,55.5,13.7,55,13.7z M60.1,13.6h-0.7V8.8h-1.5V8.1h3.8v0.7h-1.5C60.2,8.8,60.1,13.6,60.1,13.6z M66.5,8.1l-2.1,4.7
	c-0.3,0.7-0.7,1-1.3,1c-0.2,0-0.4,0-0.5-0.1l0.2-0.7c0.1,0.1,0.2,0.1,0.4,0.1s0.3,0,0.4-0.1c0.1-0.1,0.2-0.2,0.3-0.4l0.2-0.4
	l-1.9-4.1H63l1.4,3.2l1.3-3.2C65.7,8.1,66.5,8.1,66.5,8.1z M67.3,13.6V8.1h4v5.5h-0.7V8.8H68v4.9h-0.7
	C67.3,13.7,67.3,13.6,67.3,13.6z M72.6,13.6V8.1h0.7v2.4h2.8V8.1h0.7v5.5h-0.7v-2.5h-2.8v2.5C73.3,13.6,72.6,13.6,72.6,13.6z
	 M82.6,12.9c-0.5,0.6-1.2,0.8-2,0.8s-1.5-0.3-2-0.8c-0.5-0.6-0.8-1.2-0.8-2.1c0-0.8,0.3-1.5,0.8-2.1s1.2-0.8,2-0.8s1.5,0.3,2,0.8
	c0.5,0.6,0.8,1.2,0.8,2C83.4,11.7,83.1,12.3,82.6,12.9z M79.1,12.4c0.4,0.4,0.9,0.6,1.5,0.6c0.3,0,0.6,0,0.8-0.2
	c0.3-0.1,0.5-0.3,0.7-0.5c0.4-0.4,0.6-0.9,0.6-1.6c0-0.6-0.2-1.2-0.6-1.6c-0.2-0.2-0.4-0.4-0.7-0.5c-0.3-0.1-0.5-0.2-0.8-0.2
	c-0.6,0-1.1,0.2-1.5,0.6c-0.4,0.4-0.6,0.9-0.6,1.6S78.7,12,79.1,12.4z M86.3,13.6V8.1h2c0.4,0,0.8,0.1,1.1,0.4
	c0.3,0.3,0.5,0.6,0.5,1.1c0,0.3-0.1,0.5-0.2,0.7s-0.3,0.4-0.5,0.5c0.3,0.1,0.5,0.3,0.7,0.5s0.3,0.5,0.3,0.8c0,0.5-0.2,0.8-0.5,1.1
	s-0.7,0.5-1.2,0.4C88.5,13.6,86.3,13.6,86.3,13.6z M87,10.5h1.3c0.3,0,0.5-0.1,0.6-0.3c0.2-0.2,0.2-0.4,0.2-0.6
	c0-0.2-0.1-0.4-0.2-0.6c-0.1-0.1-0.2-0.2-0.3-0.2c-0.1,0-0.2-0.1-0.3-0.1H87C87,8.7,87,10.5,87,10.5z M87,12.9h1.4
	c0.1,0,0.2,0,0.4-0.1c0.1,0,0.2-0.1,0.3-0.2c0.2-0.2,0.3-0.4,0.3-0.6c0-0.2-0.1-0.5-0.3-0.6c-0.1-0.1-0.2-0.2-0.3-0.2
	c-0.1,0-0.2-0.1-0.4-0.1H87C87,11.1,87,12.9,87,12.9z"/>
<g>
	<path class="st2" d="M11,8.6c-0.3,0.3-0.4,0.7-0.4,1.3v20.4c0,0.6,0.2,1,0.4,1.3l0.1,0.1l11.4-11.4V20L11,8.6z"/>
	<path class="st3" d="M26.3,24l-3.8-3.8v-0.3l3.8-3.8h0.1l4.5,2.6c1.3,0.7,1.3,1.9,0,2.7L26.3,24z"/>
	<path class="st4" d="M26.4,24l-3.9-3.9L11,31.6c0.4,0.4,1.1,0.5,1.9,0.1L26.4,24z"/>
	<path class="st5" d="M26.4,16.2L12.9,8.5c-0.8-0.4-1.5-0.4-1.9,0.1l11.5,11.5L26.4,16.2z"/>
	<path class="st6" d="M26.3,23.9l-13.4,7.6c-0.7,0.4-1.4,0.4-1.8,0L11,31.6l0.1,0.1c0.4,0.4,1.1,0.4,1.8,0
		C12.9,31.7,26.3,23.9,26.3,23.9z"/>
	<path d="M11,31.4c-0.3-0.3-0.4-0.7-0.4-1.3v0.1c0,0.6,0.2,1,0.4,1.3V31.4z M30.9,21.3l-4.6,2.6l0.1,0.1l4.5-2.6
		c0.6-0.4,1-0.8,1-1.3C31.8,20.5,31.5,20.9,30.9,21.3z"/>
	<path class="st7" d="M12.9,8.7l18,10.2c0.6,0.3,0.9,0.8,1,1.2c0-0.5-0.3-1-1-1.3L12.9,8.7c-1.3-0.8-2.3-0.2-2.3,1.3
		C10.6,8.5,11.6,7.9,12.9,8.7z"/>
</g>
</svg>
