<svg xmlns="http://www.w3.org/2000/svg" viewBox="0 0 128 40"><defs/><path fill-rule="evenodd" d="M5.1 0h117.7c1.8 0 2.4.2 3.1.5.7.3 1.2.9 1.5 1.5.3.7.5 1.3.5 3.1v29.7c0 1.8-.2 2.4-.5 3.1-.3.6-.9 1.2-1.5 1.5-.7.3-1.3.5-3.1.5H5.1c-1.8 0-2.4-.2-3.1-.5-.6-.3-1.2-.9-1.5-1.5-.3-.6-.5-1.2-.5-3V5.1C0 3.3.2 2.7.5 2 .9 1.4 1.4.9 2 .5 2.7.2 3.3 0 5.1 0z" clip-rule="evenodd"/><path fill="#fff" fill-rule="evenodd" d="M24.5 19.6c0 1 .3 2 .9 2.8.6.8 1.3 1.5 2.3 1.9-.4 1.2-.9 2.3-1.6 3.3-1 1.4-2 2.8-3.6 2.9-1.6 0-2.1-.9-3.9-.9-1.8 0-2.4.9-3.8 1-1.5.1-2.7-1.5-3.7-3-2-2.9-3.5-8.2-1.5-11.8.5-.9 1.2-1.6 2-2.1s1.8-.8 2.8-.8c1.5 0 2.9 1 3.9 1 .9 0 2.7-1.3 4.5-1.1.8 0 1.7.2 2.4.7.7.4 1.4 1 1.9 1.7-.8.5-1.4 1.1-1.8 1.9-.5.7-.8 1.6-.8 2.5zm-2.9-8.7c-.4.5-.9.9-1.5 1.2-.6.3-1.3.4-1.9.4 0-.7 0-1.3.3-1.9.2-.6.5-1.2 1-1.7.9-1 2.1-1.6 3.4-1.8 0 1.4-.4 2.8-1.3 3.8zm21.7 16h-5.1L37 30.5h-2.2l4.8-13.3h2.2l4.8 13.3h-2.2l-1.1-3.6zm-4.5-1.6h4l-2-5.9h-.1l-1.9 5.9zm18.3.4c0 3-1.6 5-4.1 5-.6 0-1.2-.1-1.8-.4-.5-.3-1-.7-1.3-1.3v4.8h-2v-13h1.9v1.6c.3-.5.8-1 1.3-1.3.5-.3 1.2-.5 1.8-.4 2.6 0 4.2 2 4.2 5zm-2 0c0-2-1-3.3-2.6-3.3-1.5 0-2.5 1.3-2.5 3.3 0 2 1 3.3 2.5 3.3 1.6 0 2.6-1.3 2.6-3.3zm12.7 0c0 3-1.6 5-4.1 5-.6 0-1.2-.1-1.8-.4-.5-.3-1-.7-1.3-1.3v4.8h-2v-13h1.9v1.6c.3-.5.8-1 1.3-1.3.5-.3 1.2-.5 1.8-.4 2.6 0 4.2 2 4.2 5zm-2 0c0-2-1-3.3-2.6-3.3-1.5 0-2.5 1.3-2.5 3.3 0 2 1 3.3 2.5 3.3 1.6 0 2.6-1.3 2.6-3.3zm9.1 1.1c.1 1.3 1.4 2.2 3.2 2.2 1.7 0 2.9-.9 2.9-2.1 0-1-.7-1.7-2.5-2.1l-1.7-.4c-2.4-.6-3.6-1.7-3.6-3.6 0-2.3 2-3.9 4.9-3.9 2.8 0 4.7 1.6 4.8 3.9h-2c-.1-1.3-1.2-2.1-2.8-2.1-1.6 0-2.7.8-2.7 2 0 .9.7 1.5 2.4 1.9l1.5.4c2.7.6 3.9 1.7 3.9 3.7 0 2.5-2 4.1-5.1 4.1-3 0-5-1.5-5.1-3.9h1.9zm12.5-8.3v2.3h1.8v1.6h-1.8v5.4c0 .8.4 1.2 1.2 1.2h.7v1.6c-.4.1-.7.1-1.1.1-2 0-2.7-.7-2.7-2.6v-5.6H84v-1.6h1.4v-2.3h2zm2.9 7.2c0-3.1 1.8-5 4.6-5s4.6 1.9 4.6 5-1.8 5-4.6 5-4.6-1.9-4.6-5zm7.2 0c0-2.1-1-3.3-2.6-3.3s-2.6 1.2-2.6 3.3c0 2.1 1 3.3 2.6 3.3 1.7 0 2.6-1.2 2.6-3.3zm3.7-4.9h1.9v1.7c.1-.5.4-1 .9-1.3.4-.3.9-.5 1.5-.5.2 0 .5 0 .7.1v1.9c-.3-.1-.6-.1-.9-.1-.3 0-.6 0-.8.1-.3.1-.5.3-.7.5-.2.2-.3.5-.4.7-.1.3-.1.6-.1.9v5.8h-2v-9.8zm14.2 6.9c-.3 1.8-2 3-4.2 3-2.8 0-4.6-1.9-4.6-4.9 0-3 1.8-5 4.5-5s4.4 1.8 4.4 4.8v.7h-6.9v.1c0 .4 0 .7.1 1.1.1.3.3.6.6.9.2.3.5.5.9.6.3.1.7.2 1 .2.5 0 .9-.1 1.3-.3.4-.2.7-.6.9-1.1h2zm-6.8-2.9h4.9c0-.3 0-.6-.1-.9-.1-.3-.3-.6-.5-.8-.2-.2-.5-.4-.8-.5s-.6-.2-.9-.2c-.7 0-1.3.3-1.7.7-.6.4-.9 1-.9 1.7zM37.4 9.9h.9c.3 0 .6 0 .8-.2s.4-.4.4-.7v-.1c0-.6-.4-1-1.2-1-.3 0-.6 0-.8.2-.2.2-.4.5-.4.8H36c0-.3.1-.5.2-.8.1-.2.3-.5.5-.6.2-.2.5-.3.7-.4.3-.1.6-.1.9-.1 1.3 0 2.2.7 2.2 1.7 0 .3-.1.7-.3.9-.2.3-.5.5-.8.5v.1c.8 0 1.5.7 1.4 1.5 0 .3-.1.6-.3.8-.1.2-.3.5-.5.6-.2.2-.5.3-.8.4-.3.1-.6.1-.8.1-.3 0-.6 0-.8-.1-.3-.1-.5-.2-.7-.4l-.6-.6c-.1-.2-.2-.5-.3-.8v-.1h1c.1.6.6 1 1.5 1 .8 0 1.4-.4 1.4-1.1 0-.6-.5-1-1.4-1h-.9l-.2-.6zm4.4 2.3c0-.9.6-1.4 1.8-1.4l1.3-.1v-.4c0-.5-.3-.8-1-.8-.5 0-.9.2-1 .5H42c.1-.8.9-1.4 2-1.4 1.2 0 1.9.6 1.9 1.6v3.3H45v-.7h-.1l-.6.6c-.2.2-.5.2-.8.2-.2 0-.4 0-.6-.1-.2-.1-.4-.2-.5-.3-.2-.1-.3-.3-.4-.5-.2-.1-.2-.3-.2-.5zm3.1-.4v-.4l-1.2.1c-.7 0-1 .3-1 .7 0 .4.4.7.9.7h.5c.1 0 .3-.1.4-.2.1-.1.2-.2.3-.4 0-.2.1-.3.1-.5zm3.5-2.2v4h-1V8.7h3.2v.8h-2.2zm8 1.6c0 1.5-.8 2.5-2 2.5-.3 0-.6 0-.9-.2-.3-.1-.5-.4-.6-.6h-.1v2.3h-1V8.7h.9v.8h.1c.3-.6.9-.9 1.5-.9 1.3.1 2.1 1 2.1 2.6zm-1 0c0-1-.5-1.6-1.3-1.6s-1.3.6-1.3 1.6.5 1.6 1.3 1.6 1.3-.6 1.3-1.6zm2.2 4.1v-.8h.3c.2 0 .4 0 .6-.2.2-.1.3-.3.3-.5l.1-.2-1.8-4.9h1l1.2 3.8h.1l1.2-3.8h1l-1.8 5c-.3 1.3-.8 1.6-1.8 1.6h-.4zm4.8-3.1h1c.1.4.5.6 1.1.6.6 0 1-.3 1-.7 0-.5-.3-.7-1-.7h-.7v-.7h.7c.6 0 .9-.2.9-.6 0-.4-.3-.6-.9-.6-.5 0-.9.2-1 .6h-.9c.1-.4.3-.8.7-1.1.4-.3.8-.4 1.2-.3 1.1 0 1.8.5 1.8 1.3 0 .2-.1.5-.2.6-.1.2-.3.3-.6.4v.1c.5.1 1 .5.9 1.1 0 .9-.8 1.5-2 1.5-1 0-1.9-.5-2-1.5zm5.4 1.4V8.7h.9V12h.1L71 8.7h1v4.8h-1v-3.3l-2.2 3.3h-1zm9.4-4h-1.5v4h-1v-4h-1.5v-.9h4v.9zm5.1 2.7c-.1.4-.4.8-.8 1.1-.4.3-.8.4-1.3.3-.3 0-.6-.1-.9-.2-.3-.1-.6-.3-.8-.6-.2-.2-.4-.5-.5-.8v-.9c0-.3 0-.6.1-.9.1-.3.3-.6.5-.8.2-.3.4-.5.7-.7.3-.1.6-.2.9-.2 1.3 0 2.2.9 2.2 2.4v.3H79v.1c0 .2 0 .4.1.5.1.2.2.3.3.5.1.1.3.2.4.3.2.1.3.1.5.1.5.1.9-.2 1.2-.6l.8.1zM79 10.7h2.4c0-.2 0-.3-.1-.5s-.1-.3-.3-.4c-.1-.1-.2-.2-.4-.3-.2-.1-.3-.1-.5-.1s-.3 0-.5.1-.3.2-.4.3c-.1.1-.2.3-.3.4.1.2.1.4.1.5zm7.4-2h2.2c.9 0 1.5.5 1.5 1.2 0 .5-.3.9-.8 1v.1c.3 0 .5.1.7.4.2.2.3.5.3.8 0 .8-.6 1.4-1.7 1.4h-2.2V8.7zm.9.8v1.3h.9c.6 0 .9-.2.9-.6 0-.4-.2-.6-.7-.6h-1.1zm0 1.9v1.4h1.1c.6 0 .9-.3.9-.7 0-.5-.3-.7-1-.7h-1z" clip-rule="evenodd"/></svg>