<svg width="50" height="56" viewBox="0 0 50 56" fill="none" xmlns="http://www.w3.org/2000/svg">
<path fill-rule="evenodd" clip-rule="evenodd" d="M0 15.1126C0 11.0861 1.56822 7.29485 4.43021 4.43182C7.29221 1.56878 11.0821 0 15.1072 0H50V7.68704H15.1072C13.1338 7.68704 11.2781 8.45836 9.8667 9.87027C8.45531 11.2822 7.68427 13.1516 7.68427 15.1257L7.63199 28.0289C7.27914 31.4541 4.69158 34.2126 1.35912 34.7224L0 34.9185V15.1126ZM0 49.9267V42.2397H34.8928C36.8662 42.2397 38.735 41.4553 40.1333 40.0564C41.5447 38.6445 42.3157 36.7881 42.3157 34.8141L42.3288 22.5775C42.3288 18.9301 45.0471 15.7664 48.6409 15.2173L50 15.0082V34.8141C50 38.8406 48.4187 42.6318 45.5698 45.4949C44.545 46.5201 43.4012 47.3793 42.1702 48.06C42.3274 48.5867 42.4119 49.1447 42.4119 49.7225C42.4119 52.9266 39.8145 55.524 36.6104 55.524C33.4747 55.524 30.92 53.0362 30.8124 49.9267H19.1734C19.0658 53.0362 16.5111 55.524 13.3754 55.524C10.2396 55.524 7.68496 53.0362 7.5774 49.9267H0ZM29.5493 25.0223V34.9449H35.5738V15.4004H29.876L25.0014 21.6886L20.1399 15.4004H14.429V34.9449H20.4536V25.0223L25.0014 30.4477L29.5493 25.0223Z" fill="#E30613"/>
</svg>
