<svg width="40" height="40" viewBox="0 0 40 40" fill="none" xmlns="http://www.w3.org/2000/svg">
<path d="M20 40C31.0457 40 40 31.0457 40 20C40 8.9543 31.0457 0 20 0C8.9543 0 0 8.9543 0 20C0 31.0457 8.9543 40 20 40Z" fill="#FF7700"/>
<path fill-rule="evenodd" clip-rule="evenodd" d="M17.9 23.8498C16.9522 23.6341 16.0478 23.2594 15.225 22.7418C14.9203 22.5554 14.7017 22.2561 14.6169 21.9092C14.532 21.5622 14.5878 21.1958 14.772 20.8898C14.8625 20.7354 14.9829 20.6007 15.1261 20.4935C15.2694 20.3862 15.4326 20.3087 15.6062 20.2654C15.7798 20.2221 15.9604 20.2139 16.1372 20.2412C16.314 20.2686 16.4836 20.331 16.636 20.4248C17.277 20.8138 17.957 21.0948 18.696 21.2288C20.15 21.4898 21.516 21.2488 22.789 20.5008C23.049 20.3478 23.312 20.2278 23.622 20.2298C23.913 20.2296 24.1965 20.3227 24.4307 20.4955C24.6648 20.6683 24.8374 20.9117 24.923 21.1898C25.098 21.7658 24.88 22.3898 24.37 22.7178C23.5789 23.2242 22.709 23.5953 21.796 23.8158L21.663 23.8508C21.7 23.8908 21.729 23.9238 21.76 23.9538C22.575 24.7688 23.39 25.5828 24.204 26.3988C24.68 26.8758 24.781 27.5308 24.464 28.0768C24.01 28.8638 22.964 28.9938 22.308 28.3428C21.496 27.5348 20.688 26.7228 19.878 25.9138L19.758 25.7838C19.731 25.8318 19.716 25.8778 19.687 25.9078C18.8764 26.7219 18.0641 27.5343 17.25 28.3448C16.691 28.9028 15.838 28.8988 15.298 28.3438C15.0593 28.097 14.9234 27.7686 14.9178 27.4253C14.9122 27.0819 15.0374 26.7493 15.268 26.4948C15.332 26.4218 15.402 26.3538 15.471 26.2848L17.804 23.9498L17.901 23.8498H17.9ZM19.782 10.7988C21.0101 10.8015 22.1872 11.2906 23.0555 12.1591C23.9238 13.0276 24.4126 14.2047 24.415 15.4328C24.4157 16.0413 24.2964 16.6439 24.064 17.2062C23.8316 17.7685 23.4907 18.2795 23.0607 18.71C22.6307 19.1404 22.12 19.4819 21.558 19.7149C20.9959 19.9479 20.3934 20.0678 19.785 20.0678C19.1763 20.0698 18.5732 19.9516 18.0103 19.72C17.4473 19.4884 16.9357 19.1479 16.5046 18.7182C16.0735 18.2884 15.7315 17.7777 15.4982 17.2155C15.2649 16.6533 15.1449 16.0505 15.145 15.4418C15.1446 14.8325 15.2642 14.2291 15.4971 13.6659C15.7299 13.1028 16.0713 12.5911 16.5019 12.16C16.9325 11.7288 17.4438 11.3867 18.0066 11.1532C18.5694 10.9196 19.1727 10.7992 19.782 10.7988ZM21.698 15.4368C21.6991 14.9301 21.4993 14.4435 21.1425 14.0837C20.7856 13.7238 20.3008 13.52 19.794 13.5168C18.729 13.5148 17.862 14.3688 17.86 15.4198C17.858 16.4728 18.713 17.3498 19.743 17.3508C20.836 17.3518 21.697 16.5088 21.698 15.4368Z" fill="white"/>
</svg>
