<svg width="14" height="14" viewBox="0 0 14 14" fill="none" xmlns="http://www.w3.org/2000/svg">
    <path d="M11.0203 10.078L13.8757 12.9327L12.9323 13.876L10.0777 11.0207C9.0155 11.8722 7.69434 12.3353 6.33301 12.3333C3.02101 12.3333 0.333008 9.64534 0.333008 6.33334C0.333008 3.02134 3.02101 0.333344 6.33301 0.333344C9.64501 0.333344 12.333 3.02134 12.333 6.33334C12.3349 7.69468 11.8718 9.01584 11.0203 10.078ZM9.68301 9.58334C10.5291 8.71327 11.0016 7.54696 10.9997 6.33334C10.9997 3.75468 8.91101 1.66668 6.33301 1.66668C3.75434 1.66668 1.66634 3.75468 1.66634 6.33334C1.66634 8.91134 3.75434 11 6.33301 11C7.54663 11.0019 8.71293 10.5294 9.58301 9.68334L9.68301 9.58334Z"
          fill="#777D98"/>
</svg>
