<svg width="40" height="40" viewBox="0 0 40 40" fill="none" xmlns="http://www.w3.org/2000/svg">
<path fill-rule="evenodd" clip-rule="evenodd" d="M20 40C31.046 40 40 31.046 40 20C40 8.954 31.046 0 20 0C8.954 0 0 8.954 0 20C0 31.046 8.954 40 20 40Z" fill="#1B95E0"/>
<path d="M30 13.894C29.25 14.2211 28.4557 14.4354 27.643 14.53C28.4971 14.03 29.139 13.2352 29.448 12.295C28.6407 12.7661 27.7597 13.0974 26.842 13.275C26.4553 12.8705 25.9904 12.5489 25.4755 12.3298C24.9606 12.1106 24.4066 11.9984 23.847 12C21.197 12 19.251 14.433 19.849 16.959C18.2235 16.8819 16.6319 16.4667 15.1758 15.7401C13.7197 15.0136 12.431 13.9914 11.392 12.739C10.8684 13.6285 10.7081 14.6857 10.9447 15.6904C11.1813 16.6951 11.7965 17.5697 12.662 18.132C12.0116 18.1122 11.375 17.9392 10.804 17.627C10.759 19.497 12.122 21.249 14.095 21.638C13.517 21.792 12.885 21.828 12.242 21.708C12.763 23.312 14.278 24.479 16.075 24.512C14.3465 25.8422 12.1658 26.4428 10 26.185C11.8824 27.3737 14.0637 28.0031 16.29 28C23.908 28 28.212 21.666 27.953 15.985C28.7539 15.4153 29.4471 14.7076 30 13.895V13.894Z" fill="white"/>
</svg>
