<svg width="40" height="40" viewBox="0 0 40 40" fill="none" xmlns="http://www.w3.org/2000/svg">
<path d="M13.9513 0.278809H26.0628C37.115 0.278809 39.7353 2.89902 39.7353 13.9513V26.0628C39.7353 37.115 37.115 39.7353 26.0628 39.7353H13.9513C2.89902 39.7213 0.278809 37.1011 0.278809 26.0488V13.9373C0.278809 2.89902 2.89902 0.278809 13.9513 0.278809Z" fill="#4680C2"/>
<path d="M32.5714 13.8679C32.7665 13.2546 32.5714 12.8086 31.7073 12.8086H28.8362C28.1115 12.8086 27.777 13.1989 27.5819 13.617C27.5819 13.617 26.1045 17.1849 24.0418 19.4846C23.3728 20.1536 23.0662 20.3766 22.7038 20.3766C22.5087 20.3766 22.2578 20.1536 22.2578 19.5403V13.84C22.2578 13.1153 22.0348 12.7808 21.4216 12.7808H16.9059C16.4599 12.7808 16.1812 13.1153 16.1812 13.4498C16.1812 14.1466 17.2125 14.3139 17.324 16.2651V20.4881C17.324 21.4079 17.1568 21.5752 16.7944 21.5752C15.8188 21.5752 13.4494 17.9794 12.0278 13.8957C11.7491 13.0874 11.4704 12.7808 10.7456 12.7808H7.87454C7.0383 12.7808 6.89893 13.171 6.89893 13.5891C6.89893 14.3417 7.87454 18.1327 11.4425 23.1362C13.8118 26.5647 17.1707 28.3905 20.209 28.3905C22.0488 28.3905 22.2717 27.9724 22.2717 27.2755V24.6832C22.2717 23.847 22.439 23.7076 23.0244 23.7076C23.4425 23.7076 24.1951 23.9306 25.8954 25.5752C27.8467 27.5264 28.1812 28.4184 29.2683 28.4184H32.1393C32.9756 28.4184 33.3658 28.0003 33.1428 27.1919C32.892 26.3836 31.9442 25.2128 30.7177 23.8191C30.0488 23.0386 29.0453 22.1745 28.7386 21.7564C28.3205 21.1989 28.432 20.9759 28.7386 20.4741C28.6968 20.4881 32.209 15.5264 32.5714 13.8679Z" fill="white"/>
</svg>
